<svg width="340" height="85" viewBox="0 0 340 85" fill="none" xmlns="http://www.w3.org/2000/svg">
<g id="Mask group">
<mask id="mask0_202_178" style="mask-type:alpha" maskUnits="userSpaceOnUse" x="0" y="0" width="340" height="85">
<rect id="ref" width="340" height="85" fill="#0F0E0E"/>
</mask>
<g mask="url(#mask0_202_178)">
<g id="ref_2">
<g id="left_eye">
<path id="362" d="M222 50.5C222 53.5376 219.538 56 216.5 56C213.462 56 211 53.5376 211 50.5C211 47.4624 213.462 45 216.5 45C219.538 45 222 47.4624 222 50.5Z" fill="#FB0514"/>
<path id="380" d="M241 55.5C241 58.5376 238.538 61 235.5 61C232.462 61 230 58.5376 230 55.5C230 52.4624 232.462 50 235.5 50C238.538 50 241 52.4624 241 55.5Z" fill="#FB0514"/>
<path id="373" d="M264 55.5C264 58.5376 261.538 61 258.5 61C255.462 61 253 58.5376 253 55.5C253 52.4624 255.462 50 258.5 50C261.538 50 264 52.4624 264 55.5Z" fill="#FB0514"/>
<path id="263" d="M278 43.5C278 46.5376 275.538 49 272.5 49C269.462 49 267 46.5376 267 43.5C267 40.4624 269.462 38 272.5 38C275.538 38 278 40.4624 278 43.5Z" fill="#FB0514"/>
<path id="387" d="M263 29.5C263 32.5376 260.538 35 257.5 35C254.462 35 252 32.5376 252 29.5C252 26.4624 254.462 24 257.5 24C260.538 24 263 26.4624 263 29.5Z" fill="#FB0514"/>
<path id="385" d="M240 32.5C240 35.5376 237.538 38 234.5 38C231.462 38 229 35.5376 229 32.5C229 29.4624 231.462 27 234.5 27C237.538 27 240 29.4624 240 32.5Z" fill="#FB0514"/>
</g>
<g id="right_eye">
<path id="158" d="M113 31.5C113 34.5376 110.538 37 107.5 37C104.462 37 102 34.5376 102 31.5C102 28.4624 104.462 26 107.5 26C110.538 26 113 28.4624 113 31.5Z" fill="#FB0514"/>
<path id="133" d="M129 49.5C129 52.5376 126.538 55 123.5 55C120.462 55 118 52.5376 118 49.5C118 46.4624 120.462 44 123.5 44C126.538 44 129 46.4624 129 49.5Z" fill="#FB0514"/>
<path id="153" d="M112 56.5C112 59.5376 109.538 62 106.5 62C103.462 62 101 59.5376 101 56.5C101 53.4624 103.462 51 106.5 51C109.538 51 112 53.4624 112 56.5Z" fill="#FB0514"/>
<path id="144" d="M92 56.5C92 59.5376 89.5376 62 86.5 62C83.4624 62 81 59.5376 81 56.5C81 53.4624 83.4624 51 86.5 51C89.5376 51 92 53.4624 92 56.5Z" fill="#FB0514"/>
<path id="33" d="M74 45.5C74 48.5376 71.5376 51 68.5 51C65.4624 51 63 48.5376 63 45.5C63 42.4624 65.4624 40 68.5 40C71.5376 40 74 42.4624 74 45.5Z" fill="#FB0514"/>
<path id="160" d="M91 29.5C91 32.5376 88.5376 35 85.5 35C82.4624 35 80 32.5376 80 29.5C80 26.4624 82.4624 24 85.5 24C88.5376 24 91 26.4624 91 29.5Z" fill="#FB0514"/>
</g>
<g id="noyse">
<path id="168" d="M181 49.5C181 52.5376 178.538 55 175.5 55C172.462 55 170 52.5376 170 49.5C170 46.4624 172.462 44 175.5 44C178.538 44 181 46.4624 181 49.5Z" fill="#FB0514"/>
<path id="197" d="M181 76.5C181 79.5376 178.538 82 175.5 82C172.462 82 170 79.5376 170 76.5C170 73.4624 172.462 71 175.5 71C178.538 71 181 73.4624 181 76.5Z" fill="#FB0514"/>
</g>
<g id="contour">
<path id="63" d="M67 -0.5C67 2.53757 64.5376 5 61.5 5C58.4624 5 56 2.53757 56 -0.5C56 -3.53757 58.4624 -6 61.5 -6C64.5376 -6 67 -3.53757 67 -0.5Z" fill="#FB0514"/>
<path id="71" d="M48 20.5C48 23.5376 45.5376 26 42.5 26C39.4624 26 37 23.5376 37 20.5C37 17.4624 39.4624 15 42.5 15C45.5376 15 48 17.4624 48 20.5Z" fill="#FB0514"/>
<path id="162" d="M23 46.5C23 49.5376 20.5376 52 17.5 52C14.4624 52 12 49.5376 12 46.5C12 43.4624 14.4624 41 17.5 41C20.5376 41 23 43.4624 23 46.5Z" fill="#FB0514"/>
<path id="234" d="M19 88.5C19 91.5376 16.5376 94 13.5 94C10.4624 94 8 91.5376 8 88.5C8 85.4624 10.4624 83 13.5 83C16.5376 83 19 85.4624 19 88.5Z" fill="#FB0514"/>
<path id="389" d="M332 50.5C332 53.5376 329.538 56 326.5 56C323.462 56 321 53.5376 321 50.5C321 47.4624 323.462 45 326.5 45C329.538 45 332 47.4624 332 50.5Z" fill="#FB0514"/>
<path id="301" d="M308 21.5C308 24.5376 305.538 27 302.5 27C299.462 27 297 24.5376 297 21.5C297 18.4624 299.462 16 302.5 16C305.538 16 308 18.4624 308 21.5Z" fill="#FB0514"/>
<path id="293" d="M291 -0.5C291 2.53757 288.538 5 285.5 5C282.462 5 280 2.53757 280 -0.5C280 -3.53757 282.462 -6 285.5 -6C288.538 -6 291 -3.53757 291 -0.5Z" fill="#FB0514"/>
<path id="296" d="M233 -2.5C233 0.537566 230.538 3 227.5 3C224.462 3 222 0.537566 222 -2.5C222 -5.53757 224.462 -8 227.5 -8C230.538 -8 233 -5.53757 233 -2.5Z" fill="#FB0514"/>
<path id="336" d="M209 11.5C209 14.5376 206.538 17 203.5 17C200.462 17 198 14.5376 198 11.5C198 8.46243 200.462 6 203.5 6C206.538 6 209 8.46243 209 11.5Z" fill="#FB0514"/>
<path id="66" d="M127 -2.5C127 0.537566 124.538 3 121.5 3C118.462 3 116 0.537566 116 -2.5C116 -5.53757 118.462 -8 121.5 -8C124.538 -8 127 -5.53757 127 -2.5Z" fill="#FB0514"/>
<path id="107" d="M145 11.5C145 14.5376 142.538 17 139.5 17C136.462 17 134 14.5376 134 11.5C134 8.46243 136.462 6 139.5 6C142.538 6 145 8.46243 145 11.5Z" fill="#FB0514"/>
</g>
</g>
</g>
</g>
</svg>
